<?xml version="1.0" encoding="utf-8"?>
<svg width="24" height="24" viewBox="0 0 24 24" fill="none" xmlns="http://www.w3.org/2000/svg">
  <path d="M 6.779 14.277 C 6.526 14.277 6.321 14.501 6.321 14.777 C 6.321 15.053 6.526 15.277 6.779 15.277 L 19.581 15.277 C 19.834 15.277 20.039 15.053 20.039 14.777 C 20.039 14.501 19.834 14.277 19.581 14.277 L 6.779 14.277 Z" style="fill: rgb(255, 255, 255);"/>
  <path d="M 8.465 16.566 C 8.333 16.566 8.225 16.79 8.225 17.066 C 8.225 17.342 8.333 17.566 8.465 17.566 L 15.205 17.566 C 15.337 17.566 15.445 17.342 15.445 17.066 C 15.445 16.79 15.337 16.566 15.205 16.566 L 8.465 16.566 Z" style="fill: rgb(255, 255, 255);"/>
  <path d="M 2.863 12.127 C 2.615 12.127 2.412 12.351 2.412 12.627 C 2.41 12.903 2.613 13.127 2.861 13.127 L 15.47 13.127 C 15.72 13.127 15.922 12.903 15.922 12.627 C 15.922 12.351 15.721 12.127 15.472 12.127 L 2.863 12.127 Z" style="fill: rgb(255, 255, 255);" transform="matrix(0.999998, -0.001806, 0.001806, 0.999998, -0.022789, 0.016576)"/>
  <path d="M 8.191 9.966 C 7.947 9.966 7.748 10.19 7.748 10.466 C 7.747 10.742 7.946 10.966 8.189 10.966 L 20.567 10.966 C 20.812 10.966 21.01 10.742 21.01 10.466 C 21.011 10.19 20.813 9.966 20.569 9.966 L 8.191 9.966 Z" style="fill: rgb(255, 255, 255);" transform="matrix(0.999998, -0.001806, 0.001806, 0.999998, -0.018878, 0.025986)"/>
  <path d="M 1.959 7.614 C 1.615 7.614 1.335 7.838 1.335 8.114 C 1.333 8.39 1.613 8.614 1.956 8.614 L 19.393 8.614 C 19.739 8.614 20.018 8.39 20.018 8.114 C 20.019 7.838 19.741 7.614 19.396 7.614 L 1.959 7.614 Z" style="fill: rgb(255, 255, 255);" transform="matrix(0.999998, -0.001806, 0.001806, 0.999998, -0.014636, 0.019295)"/>
  <path d="M 6.303 5.251 C 6.153 5.251 6.033 5.475 6.033 5.751 C 6.032 6.027 6.153 6.251 6.302 6.251 L 13.852 6.251 C 14.001 6.251 14.122 6.027 14.122 5.751 C 14.122 5.475 14.002 5.251 13.855 5.251 L 6.303 5.251 Z" style="fill: rgb(255, 255, 255);" transform="matrix(0.999998, -0.001806, 0.001806, 0.999998, -0.01037, 0.018209)"/>
</svg>