<svg width="100" height="101" viewBox="0 0 100 101" fill="none" xmlns="http://www.w3.org/2000/svg">
<path d="M50 71.3333C61.506 71.3333 70.8334 62.0059 70.8334 50.5C70.8334 38.994 61.506 29.6666 50 29.6666C38.4941 29.6666 29.1667 38.994 29.1667 50.5C29.1667 62.0059 38.4941 71.3333 50 71.3333Z" fill="url(#paint0_linear_4_47)"/>
<path d="M69.5792 11.3458L64.6833 23.1667C63.0875 27.0167 57.3125 24.625 58.9083 20.775L63.8042 8.95416C65.4 5.10416 71.175 7.49582 69.5792 11.3458ZM41.0542 80.2083L36.1583 92.0292C34.5625 95.8792 28.7875 93.4875 30.3833 89.6375L35.2792 77.8167C36.875 73.9667 42.65 76.3583 41.0542 80.2083ZM91.5208 36.6708L79.7 41.5667C75.85 43.1625 73.4584 37.3875 77.3083 35.7917L89.1292 30.8958C92.9792 29.3 95.3708 35.075 91.5208 36.6708ZM22.6583 65.1958L10.8375 70.0917C6.98751 71.6875 4.59584 65.9125 8.44584 64.3167L20.2667 59.4208C24.1167 57.825 26.5083 63.6 22.6583 65.1958ZM89.1292 70.0958L77.3083 65.2C73.4584 63.6042 75.85 57.8292 79.7 59.425L91.5208 64.3208C95.3708 65.9167 92.9792 71.6917 89.1292 70.0958ZM20.2667 41.5708L8.44584 36.675C4.59584 35.0792 6.98751 29.3042 10.8375 30.9L22.6583 35.7958C26.5083 37.3917 24.1167 43.1667 20.2667 41.5708ZM36.1542 8.94999L41.05 20.7708C42.6458 24.6208 36.8708 27.0125 35.275 23.1625L30.3792 11.3417C28.7833 7.49166 34.5583 5.09999 36.1542 8.94999ZM64.6792 77.8125L69.575 89.6333C71.1708 93.4833 65.3958 95.875 63.8 92.025L58.9042 80.2042C57.3083 76.3542 63.0833 73.9625 64.6792 77.8125Z" fill="#FFB300"/>
<defs>
<linearGradient id="paint0_linear_4_47" x1="50" y1="29.6666" x2="50" y2="70.7779" gradientUnits="userSpaceOnUse">
<stop stop-color="#FFC227"/>
<stop offset="1" stop-color="#FFB300"/>
</linearGradient>
</defs>
</svg>
