<svg width="15" height="15" viewBox="0 0 15 15" fill="none" xmlns="http://www.w3.org/2000/svg">
<path d="M13.1438 1.24373L1.49375 4.52498C1.39458 4.5521 1.30618 4.60912 1.24058 4.68829C1.17499 4.76746 1.1354 4.86492 1.1272 4.96741C1.119 5.06989 1.1426 5.17241 1.19477 5.261C1.24694 5.34959 1.32515 5.41995 1.41875 5.46248L6.76875 7.99373C6.87355 8.04227 6.95772 8.12643 7.00625 8.23123L9.5375 13.5812C9.58004 13.6748 9.65039 13.753 9.73898 13.8052C9.82757 13.8574 9.93009 13.881 10.0326 13.8728C10.1351 13.8646 10.2325 13.825 10.3117 13.7594C10.3909 13.6938 10.4479 13.6054 10.475 13.5062L13.7563 1.85623C13.7811 1.77122 13.7827 1.68108 13.7607 1.59527C13.7388 1.50945 13.6941 1.43113 13.6315 1.36849C13.5689 1.30586 13.4905 1.26123 13.4047 1.23928C13.3189 1.21733 13.2288 1.21887 13.1438 1.24373V1.24373Z" stroke="white" stroke-linecap="round" stroke-linejoin="round"/>
</svg>
